<svg width="58" height="10" viewBox="0 0 58 10" fill="none" xmlns="http://www.w3.org/2000/svg">
<path d="M0.158203 9H1.74023L2.45508 6.81445H5.60156L6.31641 9H7.9043L4.88086 0.544922H3.18164L0.158203 9ZM4.01367 2.05078H4.04883L5.2207 5.64844H2.83594L4.01367 2.05078ZM8.80664 9H12.3516C14.1562 9 15.252 8.08594 15.252 6.60938V6.59766C15.252 5.48438 14.4434 4.65234 13.2539 4.54688V4.51758C14.1621 4.39453 14.8477 3.58008 14.8477 2.67188V2.66016C14.8477 1.37695 13.8574 0.544922 12.3164 0.544922H8.80664V9ZM11.9355 1.72266C12.832 1.72266 13.3535 2.13281 13.3535 2.86523V2.87695C13.3535 3.67383 12.7676 4.11914 11.6777 4.11914H10.3184V1.72266H11.9355ZM11.918 5.21484C13.1016 5.21484 13.7109 5.66016 13.7109 6.50977V6.52148C13.7109 7.37109 13.1133 7.82227 12.0059 7.82227H10.3184V5.21484H11.918ZM20.0566 9.14648C22.5293 9.14648 24.0645 7.46484 24.0645 4.77539V4.76367C24.0645 2.08008 22.5234 0.398438 20.0566 0.398438C17.5957 0.398438 16.043 2.08008 16.043 4.76367V4.77539C16.043 7.46484 17.584 9.14648 20.0566 9.14648ZM20.0566 7.83398C18.5449 7.83398 17.584 6.65625 17.584 4.77539V4.76367C17.584 2.88281 18.5508 1.71094 20.0566 1.71094C21.5684 1.71094 22.5293 2.88867 22.5293 4.76367V4.77539C22.5293 6.63867 21.5859 7.83398 20.0566 7.83398ZM28.752 9.14648C30.9023 9.14648 32.2207 7.88672 32.2207 6.01758V0.544922H30.7148V5.89453C30.7148 7.06641 30.0059 7.83398 28.752 7.83398C27.498 7.83398 26.7832 7.06641 26.7832 5.89453V0.544922H25.2715V6.01758C25.2715 7.88672 26.6074 9.14648 28.752 9.14648ZM35.7891 9H37.2949V1.81641H39.8203V0.544922H33.2578V1.81641H35.7891V9ZM46.7402 9.14648C48.8906 9.14648 50.209 7.88672 50.209 6.01758V0.544922H48.7031V5.89453C48.7031 7.06641 47.9941 7.83398 46.7402 7.83398C45.4863 7.83398 44.7715 7.06641 44.7715 5.89453V0.544922H43.2598V6.01758C43.2598 7.88672 44.5957 9.14648 46.7402 9.14648ZM54.6797 9.14648C56.7422 9.14648 57.9844 8.14453 57.9844 6.56836V6.5625C57.9844 5.24414 57.2168 4.5293 55.459 4.16602L54.5449 3.97852C53.5254 3.76758 53.0625 3.41602 53.0625 2.81836V2.8125C53.0625 2.13867 53.6777 1.67578 54.668 1.66992C55.6172 1.66992 56.2676 2.10938 56.3672 2.84766L56.3789 2.91797H57.8262L57.8203 2.81836C57.7324 1.37109 56.5254 0.398438 54.6797 0.398438C52.8574 0.398438 51.5508 1.40625 51.5449 2.89453V2.90039C51.5449 4.16016 52.3652 4.93359 54.0293 5.2793L54.9375 5.4668C56.0273 5.69531 56.4668 6.03516 56.4668 6.66797V6.67383C56.4668 7.40039 55.7988 7.875 54.7324 7.875C53.6719 7.875 52.9277 7.42383 52.8164 6.69727L52.8047 6.62695H51.3574L51.3633 6.71484C51.4629 8.23242 52.7402 9.14648 54.6797 9.14648Z" fill="#1F2937"/>
</svg>
