<svg width="55" height="10" viewBox="0 0 55 10" fill="none" xmlns="http://www.w3.org/2000/svg">
<path d="M4.42383 9.14648C6.36914 9.14648 7.80469 7.94531 8.02148 6.21094L8.0332 6.15234H6.55078L6.5332 6.21094C6.25781 7.25391 5.50195 7.83398 4.42383 7.83398C2.95312 7.83398 2.00391 6.65039 2.00391 4.76953V4.76367C2.00391 2.88867 2.94727 1.71094 4.42383 1.71094C5.52539 1.71094 6.26953 2.31445 6.51562 3.28125L6.54492 3.39258H8.02734L8.02148 3.33398C7.79883 1.61133 6.36914 0.398438 4.42383 0.398438C1.99805 0.398438 0.457031 2.0625 0.457031 4.76367V4.76953C0.457031 7.4707 1.99219 9.14648 4.42383 9.14648ZM12.9082 9.14648C15.3809 9.14648 16.916 7.46484 16.916 4.77539V4.76367C16.916 2.08008 15.375 0.398438 12.9082 0.398438C10.4473 0.398438 8.89453 2.08008 8.89453 4.76367V4.77539C8.89453 7.46484 10.4355 9.14648 12.9082 9.14648ZM12.9082 7.83398C11.3965 7.83398 10.4355 6.65625 10.4355 4.77539V4.76367C10.4355 2.88281 11.4023 1.71094 12.9082 1.71094C14.4199 1.71094 15.3809 2.88867 15.3809 4.76367V4.77539C15.3809 6.63867 14.4375 7.83398 12.9082 7.83398ZM18.123 9H19.6289V3.05273H19.6582L23.7891 9H25.1367V0.544922H23.6367V6.46875H23.6016L19.4824 0.544922H18.123V9ZM28.6992 9H30.2051V1.81641H32.7305V0.544922H26.168V1.81641H28.6992V9ZM32.0215 9H33.6035L34.3184 6.81445H37.4648L38.1797 9H39.7676L36.7441 0.544922H35.0449L32.0215 9ZM35.877 2.05078H35.9121L37.084 5.64844H34.6992L35.877 2.05078ZM43.998 9.14648C45.9434 9.14648 47.3789 7.94531 47.5957 6.21094L47.6074 6.15234H46.125L46.1074 6.21094C45.832 7.25391 45.0762 7.83398 43.998 7.83398C42.5273 7.83398 41.5781 6.65039 41.5781 4.76953V4.76367C41.5781 2.88867 42.5215 1.71094 43.998 1.71094C45.0996 1.71094 45.8438 2.31445 46.0898 3.28125L46.1191 3.39258H47.6016L47.5957 3.33398C47.373 1.61133 45.9434 0.398438 43.998 0.398438C41.5723 0.398438 40.0312 2.0625 40.0312 4.76367V4.76953C40.0312 7.4707 41.5664 9.14648 43.998 9.14648ZM50.5078 9H52.0137V1.81641H54.5391V0.544922H47.9766V1.81641H50.5078V9Z" fill="#1F2937"/>
</svg>
