<svg width="34" height="10" viewBox="0 0 34 10" fill="none" xmlns="http://www.w3.org/2000/svg">
<path d="M0.744141 9H2.25586V5.33203H6.36914V9H7.875V0.544922H6.36914V4.06055H2.25586V0.544922H0.744141V9ZM13.0957 9.14648C15.5684 9.14648 17.1035 7.46484 17.1035 4.77539V4.76367C17.1035 2.08008 15.5625 0.398438 13.0957 0.398438C10.6348 0.398438 9.08203 2.08008 9.08203 4.76367V4.77539C9.08203 7.46484 10.623 9.14648 13.0957 9.14648ZM13.0957 7.83398C11.584 7.83398 10.623 6.65625 10.623 4.77539V4.76367C10.623 2.88281 11.5898 1.71094 13.0957 1.71094C14.6074 1.71094 15.5684 2.88867 15.5684 4.76367V4.77539C15.5684 6.63867 14.625 7.83398 13.0957 7.83398ZM18.3105 9H19.6758V2.98828H19.7168L22.1543 9H23.1797L25.6172 2.98828H25.6641V9H27.0234V0.544922H25.2773L22.6875 7.00195H22.6465L20.0566 0.544922H18.3105V9ZM28.5176 9H33.9902V7.72852H30.0293V5.32031H33.7734V4.0957H30.0293V1.81641H33.9902V0.544922H28.5176V9Z" fill="#1F2937"/>
</svg>
