<svg width="371" height="158" viewBox="0 0 371 158" fill="none" xmlns="http://www.w3.org/2000/svg">
<path d="M9 70.7969C12.7969 70.7969 15.0469 68.5 15.0469 64.5156V47.6406H28.7344C42.4219 47.6406 52.0312 38.5 52.0312 25C52.0312 11.5 42.7031 2.35938 29.25 2.35938H9C5.25 2.35938 2.95312 4.70312 2.95312 8.64062V64.5156C2.95312 68.5 5.25 70.7969 9 70.7969ZM15.0469 37.8906V12.25H26.0625C34.7344 12.25 39.75 16.8906 39.75 25C39.75 33.2031 34.6875 37.8906 26.0156 37.8906H15.0469ZM79.9219 70.9844C89.3906 70.9844 96.7969 67.2812 100.078 60.9531C100.594 59.9219 100.875 58.8906 100.875 58C100.875 55.1875 98.8125 53.5 96.1875 53.5C94.5469 53.5 93.4688 54.0156 92.25 55.375C88.5 60.1562 85.0781 61.9844 79.8281 61.9844C72.2344 61.9844 67.4062 56.6406 67.4062 48.3438V47.9688H96.7031C100.172 47.9688 102.141 45.9062 102.141 42.4375C102.141 28.9375 92.8594 19.2812 79.2656 19.2812C64.9219 19.2812 55.7812 29.5 55.7812 45.3438C55.7812 61.4688 64.7344 70.9844 79.9219 70.9844ZM67.5 40.2812C67.9688 33.1562 72.75 28.3281 79.3125 28.3281C85.875 28.3281 90.4688 33.0625 90.7031 40.2812H67.5ZM124.266 70.7969C130.688 70.7969 136.922 67.4688 139.781 62.0781H140.016V65.5469C140.203 69.0156 142.406 70.9375 145.594 70.9375C148.875 70.9375 151.266 68.8281 151.266 65.0781V35.7812C151.266 25.7969 143.25 19.2812 130.922 19.2812C121.406 19.2812 113.719 22.9375 111.188 28.7031C110.672 29.7812 110.391 30.8125 110.391 31.8906C110.391 34.7031 112.453 36.5781 115.312 36.5781C117.281 36.5781 118.828 35.8281 120.047 34.2344C122.953 29.9688 125.906 28.4219 130.453 28.4219C136.219 28.4219 139.734 31.4219 139.734 36.625V40.1875L126.562 40.9375C114.469 41.6875 107.672 46.9844 107.672 55.7969C107.672 64.75 114.656 70.7969 124.266 70.7969ZM127.828 61.9844C122.766 61.9844 119.344 59.4062 119.344 55.3281C119.344 51.3906 122.578 48.8594 128.203 48.4844L139.734 47.7812V51.5781C139.734 57.5781 134.391 61.9844 127.828 61.9844ZM166.5 70.9375C170.016 70.9375 172.359 68.6406 172.359 64.7969V40.8906C172.359 34.8438 174.891 30.6719 181.547 30.625C183.844 30.5781 185.578 30.0625 186.703 29.0781C187.875 28.1406 188.438 26.7812 188.438 24.9531C188.438 23.0312 187.875 21.625 186.797 20.7344C185.906 19.9375 184.5 19.4688 182.672 19.4688C177.703 19.4688 173.391 23.2188 172.031 29.0312H171.797V25.2344C171.797 21.5781 169.5 19.3281 166.266 19.3281C162.938 19.3281 160.688 21.5781 160.688 25.2344V64.7969C160.688 68.6406 162.984 70.9375 166.5 70.9375ZM219.094 70.9375C222.516 70.9375 224.906 68.7344 224.906 64.7969V52.9375L229.312 48.8125L244.219 67.7031C245.906 70.1406 247.266 70.9375 249.562 70.9375C252.797 70.9375 255.094 68.7812 255.094 65.7344C255.094 64.2344 254.719 63.2031 253.5 61.5156L237.938 42.0625L252.094 28.6562C253.688 27.1562 254.203 26.0781 254.203 24.3438C254.203 21.5312 252 19.3281 249.094 19.3281C247.312 19.3281 246.047 19.9844 244.547 21.5781L225.047 40.8438H224.906V7.5625C224.906 3.625 222.516 1.42188 219.094 1.42188C215.672 1.42188 213.234 3.625 213.234 7.5625V64.7969C213.234 68.7344 215.672 70.9375 219.094 70.9375ZM268.781 13.3281C272.438 13.3281 275.297 10.5156 275.297 7C275.297 3.4375 272.438 0.671875 268.781 0.671875C265.172 0.671875 262.312 3.4375 262.312 7C262.312 10.5156 265.172 13.3281 268.781 13.3281ZM268.781 70.9375C272.344 70.9375 274.641 68.5938 274.641 64.7969V25.5156C274.641 21.7188 272.344 19.3281 268.781 19.3281C265.219 19.3281 262.969 21.7188 262.969 25.4688V64.7969C262.969 68.5938 265.219 70.9375 268.781 70.9375ZM300.141 70.9375C304.172 70.9375 306.562 69.0156 307.547 64.9375L316.078 33.6719H316.312L324.844 64.8906C325.922 69.1562 328.172 70.9375 332.344 70.9375C336.281 70.9375 338.578 69.0156 339.75 64.9375L350.484 27.7188C350.906 26.3125 351.094 25.3281 351.094 24.2969C351.094 21.3438 348.844 19.3281 345.516 19.3281C342.656 19.3281 340.875 20.9688 340.172 24.2031L331.922 58.4688H331.641L322.922 24.6719C322.125 21.1562 319.875 19.3281 316.359 19.3281C312.797 19.3281 310.5 21.2031 309.703 24.6719L301.031 58.4688H300.797L292.547 24.25C291.844 21.0156 290.016 19.3281 287.109 19.3281C283.781 19.3281 281.484 21.3906 281.484 24.3438C281.484 25.375 281.672 26.3594 282.047 27.8125L292.828 64.9375C294.047 69.1094 296.203 70.9375 300.141 70.9375ZM363.75 13.3281C367.406 13.3281 370.266 10.5156 370.266 7C370.266 3.4375 367.406 0.671875 363.75 0.671875C360.141 0.671875 357.281 3.4375 357.281 7C357.281 10.5156 360.141 13.3281 363.75 13.3281ZM363.75 70.9375C367.312 70.9375 369.609 68.5938 369.609 64.7969V25.5156C369.609 21.7188 367.312 19.3281 363.75 19.3281C360.188 19.3281 357.938 21.7188 357.938 25.4688V64.7969C357.938 68.5938 360.188 70.9375 363.75 70.9375ZM53.9531 156.938C56.7188 156.938 58.6875 154.922 58.6875 152.391C58.6875 150.844 58.2656 149.906 56.7656 148.266L51.75 143.016C55.5 137.766 57.4219 130.641 57.4219 122.156C57.4219 118.922 55.6406 116.719 52.4531 116.719C49.2656 116.719 47.5781 118.781 47.5312 122.109C47.4844 128.531 46.3125 132.562 44.5781 135.609L30.3281 120.188C40.0312 114.984 44.2969 109.641 44.2969 102.703C44.2969 93.75 36.75 87.375 26.1094 87.375C15.5156 87.375 7.6875 93.9844 7.6875 102.844C7.6875 107.766 9.98438 112.031 16.0781 118.406C15.8438 118.5 14.1562 119.438 13.2188 119.906C4.45312 124.641 0.421875 130.406 0.421875 138.188C0.421875 149.578 9.70312 157.172 23.6719 157.172C31.8281 157.172 39.5625 154.547 44.8594 149.953L49.3125 154.734C50.9062 156.422 52.0312 156.938 53.9531 156.938ZM24.6562 114.422C19.8281 109.688 18.0469 106.781 18.0469 103.453C18.0469 98.9062 21.4219 95.5781 26.1562 95.5781C30.9375 95.5781 34.2188 98.8125 34.2188 103.406C34.2188 107.766 31.5 110.906 24.6562 114.422ZM24.8438 148.312C16.9219 148.312 11.5781 143.859 11.5781 137.297C11.5781 132.75 13.9219 129.469 19.7344 125.859C20.1094 125.578 21.1406 125.016 21.7031 124.781L38.4844 143.016C35.5312 146.25 30.1406 148.312 24.8438 148.312ZM93.8906 156.797C97.3125 156.797 99.375 154.688 99.375 151.125V108H99.7031L117.656 151.547C118.781 154.312 120.609 155.578 123.375 155.578C126.188 155.578 127.922 154.312 129.094 151.5L147.047 108H147.375V151.125C147.375 154.688 149.391 156.797 152.812 156.797C156.234 156.797 158.25 154.688 158.25 151.125V95.25C158.25 90.4219 155.391 87.5625 150.562 87.5625C146.344 87.5625 143.906 89.3906 142.125 93.8438L123.562 139.406H123.188L104.578 93.8438C102.797 89.3438 100.406 87.5625 96.2344 87.5625C91.4062 87.5625 88.4531 90.4688 88.4531 95.25V151.125C88.4531 154.688 90.4688 156.797 93.8906 156.797ZM175.125 99.3281C178.781 99.3281 181.641 96.5156 181.641 93C181.641 89.4375 178.781 86.6719 175.125 86.6719C171.516 86.6719 168.656 89.4375 168.656 93C168.656 96.5156 171.516 99.3281 175.125 99.3281ZM175.125 156.938C178.688 156.938 180.984 154.594 180.984 150.797V111.516C180.984 107.719 178.688 105.328 175.125 105.328C171.562 105.328 169.312 107.719 169.312 111.469V150.797C169.312 154.594 171.562 156.938 175.125 156.938ZM196.594 156.938C200.016 156.938 202.453 154.734 202.453 150.797V127.219C202.453 120.094 206.719 115.266 213.422 115.266C220.078 115.266 223.359 119.203 223.359 126.234V150.797C223.359 154.734 225.797 156.938 229.219 156.938C232.641 156.938 235.031 154.734 235.031 150.797V123.891C235.031 112.406 228.797 105.375 217.828 105.375C210.188 105.375 205.031 108.797 202.359 114.703H202.125V111.234C202.125 107.625 199.781 105.328 196.359 105.328C192.891 105.328 190.781 107.625 190.781 111.234V150.797C190.781 154.734 193.172 156.938 196.594 156.938ZM247.641 143.719C247.641 152.203 252.047 156.516 260.719 156.516H261.188C266.531 156.516 269.531 154.688 269.531 151.266C269.531 148.547 267.938 147.234 264.844 146.953L264 146.859C260.625 146.578 259.312 144.938 259.312 141.188V115.312H264.703C267.609 115.312 269.391 113.578 269.391 110.766C269.391 108 267.609 106.312 264.703 106.312H259.312V99.7031C259.312 95.9531 257.062 93.6094 253.5 93.6094C249.891 93.6094 247.641 95.9531 247.641 99.7031V106.312H244.5C241.594 106.312 239.812 108 239.812 110.766C239.812 113.578 241.594 115.312 244.5 115.312H247.641V143.719Z" fill="#5FD788"/>
</svg>
