<svg width="32" height="10" viewBox="0 0 32 10" fill="none" xmlns="http://www.w3.org/2000/svg">
<path d="M3.71484 9.14648C5.77734 9.14648 7.01953 8.14453 7.01953 6.56836V6.5625C7.01953 5.24414 6.25195 4.5293 4.49414 4.16602L3.58008 3.97852C2.56055 3.76758 2.09766 3.41602 2.09766 2.81836V2.8125C2.09766 2.13867 2.71289 1.67578 3.70312 1.66992C4.65234 1.66992 5.30273 2.10938 5.40234 2.84766L5.41406 2.91797H6.86133L6.85547 2.81836C6.76758 1.37109 5.56055 0.398438 3.71484 0.398438C1.89258 0.398438 0.585938 1.40625 0.580078 2.89453V2.90039C0.580078 4.16016 1.40039 4.93359 3.06445 5.2793L3.97266 5.4668C5.0625 5.69531 5.50195 6.03516 5.50195 6.66797V6.67383C5.50195 7.40039 4.83398 7.875 3.76758 7.875C2.70703 7.875 1.96289 7.42383 1.85156 6.69727L1.83984 6.62695H0.392578L0.398438 6.71484C0.498047 8.23242 1.77539 9.14648 3.71484 9.14648ZM8.15039 9H9.66211V5.33203H13.7754V9H15.2812V0.544922H13.7754V4.06055H9.66211V0.544922H8.15039V9ZM20.502 9.14648C22.9746 9.14648 24.5098 7.46484 24.5098 4.77539V4.76367C24.5098 2.08008 22.9688 0.398438 20.502 0.398438C18.041 0.398438 16.4883 2.08008 16.4883 4.76367V4.77539C16.4883 7.46484 18.0293 9.14648 20.502 9.14648ZM20.502 7.83398C18.9902 7.83398 18.0293 6.65625 18.0293 4.77539V4.76367C18.0293 2.88281 18.9961 1.71094 20.502 1.71094C22.0137 1.71094 22.9746 2.88867 22.9746 4.76367V4.77539C22.9746 6.63867 22.0312 7.83398 20.502 7.83398ZM25.7168 9H27.2285V6.20508H28.9746C30.6855 6.20508 31.8516 5.06836 31.8516 3.38086V3.36914C31.8516 1.67578 30.6855 0.544922 28.9746 0.544922H25.7168V9ZM28.5996 1.78125C29.6836 1.78125 30.3164 2.36133 30.3164 3.375V3.38672C30.3164 4.40039 29.6836 4.98633 28.5996 4.98633H27.2285V1.78125H28.5996Z" fill="#1F2937"/>
</svg>
